<mxfile host="Electron" modified="2024-01-21T17:55:28.669Z" agent="Mozilla/5.0 (Windows NT 10.0; Win64; x64) AppleWebKit/537.36 (KHTML, like Gecko) draw.io/22.1.21 Chrome/120.0.6099.109 Electron/28.1.0 Safari/537.36" etag="gH1VtwDb7F0W7gPkQ1_n" version="22.1.21" type="device">
  <diagram name="Pagina-1" id="-4l7BPa5b6d8UpFndVd6">
    <mxGraphModel dx="1546" dy="1784" grid="0" gridSize="10" guides="1" tooltips="1" connect="1" arrows="1" fold="1" page="1" pageScale="1" pageWidth="827" pageHeight="1169" math="0" shadow="0">
      <root>
        <mxCell id="0" />
        <mxCell id="1" parent="0" />
        <mxCell id="qpu88ibbBHQJC-O9vi6A-3" value="Server" style="shape=cylinder3;whiteSpace=wrap;html=1;boundedLbl=1;backgroundOutline=1;size=15;fontSize=14;" parent="1" vertex="1">
          <mxGeometry x="1517" y="-704" width="60" height="80" as="geometry" />
        </mxCell>
        <mxCell id="qpu88ibbBHQJC-O9vi6A-5" value="Segreteria" style="ellipse;rounded=0;whiteSpace=wrap;html=1;fontSize=14;perimeter=rectanglePerimeter;" parent="1" vertex="1">
          <mxGeometry x="1377" y="-874" width="120" height="60" as="geometry" />
        </mxCell>
        <mxCell id="qpu88ibbBHQJC-O9vi6A-6" value="Studente" style="rounded=0;whiteSpace=wrap;html=1;fontSize=14;" parent="1" vertex="1">
          <mxGeometry x="1617" y="-874" width="120" height="60" as="geometry" />
        </mxCell>
        <mxCell id="qpu88ibbBHQJC-O9vi6A-14" value="" style="endArrow=classic;html=1;rounded=0;exitX=0;exitY=0.25;exitDx=0;exitDy=0;entryX=1;entryY=0.25;entryDx=0;entryDy=0;fillColor=#dae8fc;strokeColor=#6c8ebf;fontSize=14;" parent="1" source="qpu88ibbBHQJC-O9vi6A-6" target="qpu88ibbBHQJC-O9vi6A-5" edge="1">
          <mxGeometry width="50" height="50" relative="1" as="geometry">
            <mxPoint x="1527" y="-664" as="sourcePoint" />
            <mxPoint x="1557" y="-934" as="targetPoint" />
          </mxGeometry>
        </mxCell>
        <mxCell id="qpu88ibbBHQJC-O9vi6A-15" value="Chiede appelli" style="text;html=1;align=center;verticalAlign=middle;whiteSpace=wrap;rounded=0;fillColor=#dae8fc;strokeColor=#6c8ebf;fontSize=14;" parent="1" vertex="1">
          <mxGeometry x="1527" y="-914" width="60" height="55" as="geometry" />
        </mxCell>
        <mxCell id="qpu88ibbBHQJC-O9vi6A-16" value="" style="endArrow=classic;html=1;rounded=0;exitX=0.25;exitY=1;exitDx=0;exitDy=0;entryX=0;entryY=1;entryDx=0;entryDy=-15;entryPerimeter=0;fillColor=#dae8fc;strokeColor=#6c8ebf;fontSize=14;" parent="1" source="qpu88ibbBHQJC-O9vi6A-5" target="qpu88ibbBHQJC-O9vi6A-3" edge="1">
          <mxGeometry width="50" height="50" relative="1" as="geometry">
            <mxPoint x="1527" y="-664" as="sourcePoint" />
            <mxPoint x="1577" y="-714" as="targetPoint" />
            <Array as="points">
              <mxPoint x="1407" y="-639" />
            </Array>
          </mxGeometry>
        </mxCell>
        <mxCell id="qpu88ibbBHQJC-O9vi6A-18" value="" style="endArrow=classic;html=1;rounded=0;exitX=0;exitY=0.5;exitDx=0;exitDy=0;exitPerimeter=0;entryX=0.5;entryY=1;entryDx=0;entryDy=0;fillColor=#d5e8d4;strokeColor=#82b366;fontSize=14;" parent="1" source="qpu88ibbBHQJC-O9vi6A-3" target="qpu88ibbBHQJC-O9vi6A-5" edge="1">
          <mxGeometry width="50" height="50" relative="1" as="geometry">
            <mxPoint x="1517" y="-734" as="sourcePoint" />
            <mxPoint x="1437" y="-794" as="targetPoint" />
            <Array as="points">
              <mxPoint x="1437" y="-664" />
            </Array>
          </mxGeometry>
        </mxCell>
        <mxCell id="qpu88ibbBHQJC-O9vi6A-19" value="Richiede appelli al server" style="text;html=1;align=center;verticalAlign=middle;whiteSpace=wrap;rounded=0;fillColor=#dae8fc;strokeColor=#6c8ebf;fontSize=14;" parent="1" vertex="1">
          <mxGeometry x="1337" y="-754" width="70" height="60" as="geometry" />
        </mxCell>
        <mxCell id="qpu88ibbBHQJC-O9vi6A-20" value="Invio date" style="text;html=1;align=center;verticalAlign=middle;whiteSpace=wrap;rounded=0;fillColor=#d5e8d4;strokeColor=#82b366;fontSize=14;" parent="1" vertex="1">
          <mxGeometry x="1437" y="-754" width="50" height="60" as="geometry" />
        </mxCell>
        <mxCell id="qpu88ibbBHQJC-O9vi6A-21" value="Invio date allo studente" style="text;html=1;align=center;verticalAlign=middle;whiteSpace=wrap;rounded=0;fillColor=#d5e8d4;strokeColor=#82b366;fontSize=14;" parent="1" vertex="1">
          <mxGeometry x="1507" y="-829" width="90" height="45" as="geometry" />
        </mxCell>
        <mxCell id="qpu88ibbBHQJC-O9vi6A-22" value="" style="endArrow=classic;html=1;rounded=0;exitX=1;exitY=0.75;exitDx=0;exitDy=0;entryX=0;entryY=0.75;entryDx=0;entryDy=0;fillColor=#d5e8d4;strokeColor=#82b366;fontSize=14;" parent="1" source="qpu88ibbBHQJC-O9vi6A-5" target="qpu88ibbBHQJC-O9vi6A-6" edge="1">
          <mxGeometry width="50" height="50" relative="1" as="geometry">
            <mxPoint x="1517" y="-804" as="sourcePoint" />
            <mxPoint x="1567" y="-794" as="targetPoint" />
          </mxGeometry>
        </mxCell>
        <mxCell id="qpu88ibbBHQJC-O9vi6A-23" value="Server" style="shape=cylinder3;whiteSpace=wrap;html=1;boundedLbl=1;backgroundOutline=1;size=15;fontSize=14;" parent="1" vertex="1">
          <mxGeometry x="2011" y="-654" width="60" height="80" as="geometry" />
        </mxCell>
        <mxCell id="qpu88ibbBHQJC-O9vi6A-24" value="Segreteria" style="ellipse;rounded=0;whiteSpace=wrap;html=1;perimeter=rectanglePerimeter;fontSize=14;" parent="1" vertex="1">
          <mxGeometry x="1867" y="-874" width="120" height="60" as="geometry" />
        </mxCell>
        <mxCell id="qpu88ibbBHQJC-O9vi6A-25" value="Studente" style="rounded=0;whiteSpace=wrap;html=1;fontSize=14;" parent="1" vertex="1">
          <mxGeometry x="2157" y="-874" width="120" height="60" as="geometry" />
        </mxCell>
        <mxCell id="qpu88ibbBHQJC-O9vi6A-26" value="" style="endArrow=classic;html=1;rounded=0;exitX=0;exitY=0.25;exitDx=0;exitDy=0;entryX=1;entryY=0.25;entryDx=0;entryDy=0;fillColor=#dae8fc;strokeColor=#6c8ebf;fontSize=14;" parent="1" source="qpu88ibbBHQJC-O9vi6A-25" target="qpu88ibbBHQJC-O9vi6A-24" edge="1">
          <mxGeometry width="50" height="50" relative="1" as="geometry">
            <mxPoint x="2017" y="-664" as="sourcePoint" />
            <mxPoint x="2047" y="-934" as="targetPoint" />
          </mxGeometry>
        </mxCell>
        <mxCell id="qpu88ibbBHQJC-O9vi6A-27" value="Invia richiesta di prenotazione" style="text;html=1;align=center;verticalAlign=middle;whiteSpace=wrap;rounded=0;fillColor=#dae8fc;strokeColor=#6c8ebf;fontSize=14;" parent="1" vertex="1">
          <mxGeometry x="2014" y="-914" width="120" height="55" as="geometry" />
        </mxCell>
        <mxCell id="qpu88ibbBHQJC-O9vi6A-28" value="" style="endArrow=classic;html=1;rounded=0;exitX=0.25;exitY=1;exitDx=0;exitDy=0;entryX=0;entryY=1;entryDx=0;entryDy=-15;entryPerimeter=0;fillColor=#dae8fc;strokeColor=#6c8ebf;fontSize=14;" parent="1" source="qpu88ibbBHQJC-O9vi6A-24" target="qpu88ibbBHQJC-O9vi6A-23" edge="1">
          <mxGeometry width="50" height="50" relative="1" as="geometry">
            <mxPoint x="2017" y="-664" as="sourcePoint" />
            <mxPoint x="2067" y="-714" as="targetPoint" />
            <Array as="points">
              <mxPoint x="1897" y="-589" />
            </Array>
          </mxGeometry>
        </mxCell>
        <mxCell id="qpu88ibbBHQJC-O9vi6A-29" value="" style="endArrow=classic;html=1;rounded=0;exitX=0;exitY=0.5;exitDx=0;exitDy=0;exitPerimeter=0;fillColor=#d5e8d4;strokeColor=#82b366;fontSize=14;" parent="1" source="qpu88ibbBHQJC-O9vi6A-23" target="qpu88ibbBHQJC-O9vi6A-24" edge="1">
          <mxGeometry width="50" height="50" relative="1" as="geometry">
            <mxPoint x="2007" y="-734" as="sourcePoint" />
            <mxPoint x="1927" y="-794" as="targetPoint" />
            <Array as="points">
              <mxPoint x="1927" y="-614" />
            </Array>
          </mxGeometry>
        </mxCell>
        <mxCell id="qpu88ibbBHQJC-O9vi6A-30" value="Inoltra richiesta al server" style="text;html=1;align=center;verticalAlign=middle;whiteSpace=wrap;rounded=0;fillColor=#dae8fc;strokeColor=#6c8ebf;fontSize=14;" parent="1" vertex="1">
          <mxGeometry x="1817" y="-741" width="80" height="57" as="geometry" />
        </mxCell>
        <mxCell id="qpu88ibbBHQJC-O9vi6A-31" value="Invio numero progressivo del prenotato" style="text;html=1;align=center;verticalAlign=middle;whiteSpace=wrap;rounded=0;fillColor=#d5e8d4;strokeColor=#82b366;fontSize=14;" parent="1" vertex="1">
          <mxGeometry x="1927" y="-740" width="110" height="66" as="geometry" />
        </mxCell>
        <mxCell id="qpu88ibbBHQJC-O9vi6A-32" value="Invio numero progressivo allo studente" style="text;html=1;align=center;verticalAlign=middle;whiteSpace=wrap;rounded=0;fillColor=#d5e8d4;strokeColor=#82b366;fontSize=14;" parent="1" vertex="1">
          <mxGeometry x="2011" y="-829" width="116" height="65" as="geometry" />
        </mxCell>
        <mxCell id="qpu88ibbBHQJC-O9vi6A-33" value="" style="endArrow=classic;html=1;rounded=0;exitX=1;exitY=0.75;exitDx=0;exitDy=0;entryX=0;entryY=0.75;entryDx=0;entryDy=0;fillColor=#d5e8d4;strokeColor=#82b366;fontSize=14;" parent="1" source="qpu88ibbBHQJC-O9vi6A-24" target="qpu88ibbBHQJC-O9vi6A-25" edge="1">
          <mxGeometry width="50" height="50" relative="1" as="geometry">
            <mxPoint x="2007" y="-804" as="sourcePoint" />
            <mxPoint x="2057" y="-794" as="targetPoint" />
          </mxGeometry>
        </mxCell>
        <mxCell id="qpu88ibbBHQJC-O9vi6A-34" value="Visione appelli disponibili" style="text;html=1;strokeColor=none;fillColor=none;align=center;verticalAlign=middle;whiteSpace=wrap;rounded=0;fontSize=20;" parent="1" vertex="1">
          <mxGeometry x="1517" y="-984" width="160" height="50" as="geometry" />
        </mxCell>
        <mxCell id="qpu88ibbBHQJC-O9vi6A-35" value="Prenotazione esame" style="text;html=1;strokeColor=none;fillColor=none;align=center;verticalAlign=middle;whiteSpace=wrap;rounded=0;fontSize=20;" parent="1" vertex="1">
          <mxGeometry x="2002" y="-984" width="125" height="50" as="geometry" />
        </mxCell>
        <mxCell id="qpu88ibbBHQJC-O9vi6A-36" value="Server" style="shape=cylinder3;whiteSpace=wrap;html=1;boundedLbl=1;backgroundOutline=1;size=15;fontSize=14;" parent="1" vertex="1">
          <mxGeometry x="1217" y="-324" width="60" height="80" as="geometry" />
        </mxCell>
        <mxCell id="qpu88ibbBHQJC-O9vi6A-37" value="Segreteria" style="rounded=0;whiteSpace=wrap;html=1;fontSize=14;" parent="1" vertex="1">
          <mxGeometry x="1077" y="-464" width="120" height="60" as="geometry" />
        </mxCell>
        <mxCell id="qpu88ibbBHQJC-O9vi6A-38" value="Studente" style="rounded=0;whiteSpace=wrap;html=1;fontSize=14;" parent="1" vertex="1">
          <mxGeometry x="1307" y="-464" width="120" height="60" as="geometry" />
        </mxCell>
        <mxCell id="qpu88ibbBHQJC-O9vi6A-41" value="" style="endArrow=classic;html=1;rounded=0;exitX=0.5;exitY=1;exitDx=0;exitDy=0;entryX=0;entryY=0.5;entryDx=0;entryDy=0;entryPerimeter=0;fillColor=#dae8fc;strokeColor=#6c8ebf;fontSize=14;" parent="1" source="qpu88ibbBHQJC-O9vi6A-37" target="qpu88ibbBHQJC-O9vi6A-36" edge="1">
          <mxGeometry width="50" height="50" relative="1" as="geometry">
            <mxPoint x="1227" y="-254" as="sourcePoint" />
            <mxPoint x="1277" y="-304" as="targetPoint" />
            <Array as="points">
              <mxPoint x="1137" y="-284" />
            </Array>
          </mxGeometry>
        </mxCell>
        <mxCell id="qpu88ibbBHQJC-O9vi6A-43" value="Inserisce un appello" style="text;html=1;align=center;verticalAlign=middle;whiteSpace=wrap;rounded=0;fillColor=#dae8fc;strokeColor=#6c8ebf;fontSize=14;" parent="1" vertex="1">
          <mxGeometry x="1047" y="-369" width="90" height="50" as="geometry" />
        </mxCell>
        <mxCell id="qpu88ibbBHQJC-O9vi6A-47" value="Inserimento appello" style="text;html=1;strokeColor=none;fillColor=none;align=center;verticalAlign=middle;whiteSpace=wrap;rounded=0;fontSize=20;" parent="1" vertex="1">
          <mxGeometry x="1184.5" y="-544" width="125" height="50" as="geometry" />
        </mxCell>
        <mxCell id="qpu88ibbBHQJC-O9vi6A-49" value="Server" style="shape=cylinder3;whiteSpace=wrap;html=1;boundedLbl=1;backgroundOutline=1;size=15;fontSize=14;" parent="1" vertex="1">
          <mxGeometry x="470" y="-535" width="60" height="80" as="geometry" />
        </mxCell>
        <mxCell id="qpu88ibbBHQJC-O9vi6A-50" value="Segreteria" style="ellipse;rounded=0;whiteSpace=wrap;html=1;fontSize=14;perimeter=rectanglePerimeter;" parent="1" vertex="1">
          <mxGeometry x="440" y="-660" width="120" height="60" as="geometry" />
        </mxCell>
        <mxCell id="qpu88ibbBHQJC-O9vi6A-51" value="Studente" style="rounded=0;whiteSpace=wrap;html=1;fontSize=14;" parent="1" vertex="1">
          <mxGeometry x="630" y="-660" width="120" height="60" as="geometry" />
        </mxCell>
        <mxCell id="qpu88ibbBHQJC-O9vi6A-58" value="" style="endArrow=classic;html=1;rounded=0;startArrow=classic;startFill=1;" parent="1" source="qpu88ibbBHQJC-O9vi6A-51" target="qpu88ibbBHQJC-O9vi6A-50" edge="1">
          <mxGeometry width="50" height="50" relative="1" as="geometry">
            <mxPoint x="750" y="-620" as="sourcePoint" />
            <mxPoint x="800" y="-670" as="targetPoint" />
          </mxGeometry>
        </mxCell>
        <mxCell id="qpu88ibbBHQJC-O9vi6A-68" value="" style="endArrow=classic;startArrow=classic;html=1;rounded=0;" parent="1" source="qpu88ibbBHQJC-O9vi6A-50" target="qpu88ibbBHQJC-O9vi6A-49" edge="1">
          <mxGeometry width="50" height="50" relative="1" as="geometry">
            <mxPoint x="600" y="-620" as="sourcePoint" />
            <mxPoint x="650" y="-670" as="targetPoint" />
          </mxGeometry>
        </mxCell>
        <mxCell id="qpu88ibbBHQJC-O9vi6A-69" value="SEZIONE DATI" style="text;html=1;align=center;verticalAlign=middle;resizable=0;points=[];autosize=1;strokeColor=none;fillColor=none;fontSize=20;" parent="1" vertex="1">
          <mxGeometry x="469" y="49" width="160" height="40" as="geometry" />
        </mxCell>
        <mxCell id="qpu88ibbBHQJC-O9vi6A-100" value="&lt;font style=&quot;font-size: 18px;&quot;&gt;Studenti&lt;/font&gt;" style="swimlane;fontStyle=0;childLayout=stackLayout;horizontal=1;startSize=30;horizontalStack=0;resizeParent=1;resizeParentMax=0;resizeLast=0;collapsible=1;marginBottom=0;whiteSpace=wrap;html=1;fontSize=14;" parent="1" vertex="1">
          <mxGeometry x="189" y="139" width="140" height="120" as="geometry" />
        </mxCell>
        <mxCell id="qpu88ibbBHQJC-O9vi6A-101" value="Matricola" style="text;strokeColor=none;fillColor=none;align=left;verticalAlign=middle;spacingLeft=4;spacingRight=4;overflow=hidden;points=[[0,0.5],[1,0.5]];portConstraint=eastwest;rotatable=0;whiteSpace=wrap;html=1;fontSize=14;fontStyle=5" parent="qpu88ibbBHQJC-O9vi6A-100" vertex="1">
          <mxGeometry y="30" width="140" height="30" as="geometry" />
        </mxCell>
        <mxCell id="qpu88ibbBHQJC-O9vi6A-102" value="Nome" style="text;strokeColor=none;fillColor=none;align=left;verticalAlign=middle;spacingLeft=4;spacingRight=4;overflow=hidden;points=[[0,0.5],[1,0.5]];portConstraint=eastwest;rotatable=0;whiteSpace=wrap;html=1;fontSize=14;" parent="qpu88ibbBHQJC-O9vi6A-100" vertex="1">
          <mxGeometry y="60" width="140" height="30" as="geometry" />
        </mxCell>
        <mxCell id="qpu88ibbBHQJC-O9vi6A-103" value="Cognome" style="text;strokeColor=none;fillColor=none;align=left;verticalAlign=middle;spacingLeft=4;spacingRight=4;overflow=hidden;points=[[0,0.5],[1,0.5]];portConstraint=eastwest;rotatable=0;whiteSpace=wrap;html=1;fontSize=14;" parent="qpu88ibbBHQJC-O9vi6A-100" vertex="1">
          <mxGeometry y="90" width="140" height="30" as="geometry" />
        </mxCell>
        <mxCell id="qpu88ibbBHQJC-O9vi6A-105" value="Corsi" style="swimlane;fontStyle=0;childLayout=stackLayout;horizontal=1;startSize=30;horizontalStack=0;resizeParent=1;resizeParentMax=0;resizeLast=0;collapsible=1;marginBottom=0;whiteSpace=wrap;html=1;fontSize=18;" parent="1" vertex="1">
          <mxGeometry x="879" y="114" width="140" height="120" as="geometry" />
        </mxCell>
        <mxCell id="qpu88ibbBHQJC-O9vi6A-106" value="CodiceCorso" style="text;strokeColor=none;fillColor=none;align=left;verticalAlign=middle;spacingLeft=4;spacingRight=4;overflow=hidden;points=[[0,0.5],[1,0.5]];portConstraint=eastwest;rotatable=0;whiteSpace=wrap;html=1;fontSize=14;fontStyle=5" parent="qpu88ibbBHQJC-O9vi6A-105" vertex="1">
          <mxGeometry y="30" width="140" height="30" as="geometry" />
        </mxCell>
        <mxCell id="qpu88ibbBHQJC-O9vi6A-107" value="Nome" style="text;strokeColor=none;fillColor=none;align=left;verticalAlign=middle;spacingLeft=4;spacingRight=4;overflow=hidden;points=[[0,0.5],[1,0.5]];portConstraint=eastwest;rotatable=0;whiteSpace=wrap;html=1;fontSize=14;" parent="qpu88ibbBHQJC-O9vi6A-105" vertex="1">
          <mxGeometry y="60" width="140" height="30" as="geometry" />
        </mxCell>
        <mxCell id="qpu88ibbBHQJC-O9vi6A-108" value="CFU" style="text;strokeColor=none;fillColor=none;align=left;verticalAlign=middle;spacingLeft=4;spacingRight=4;overflow=hidden;points=[[0,0.5],[1,0.5]];portConstraint=eastwest;rotatable=0;whiteSpace=wrap;html=1;fontSize=14;" parent="qpu88ibbBHQJC-O9vi6A-105" vertex="1">
          <mxGeometry y="90" width="140" height="30" as="geometry" />
        </mxCell>
        <mxCell id="qpu88ibbBHQJC-O9vi6A-109" value="Esami" style="swimlane;fontStyle=0;childLayout=stackLayout;horizontal=1;startSize=30;horizontalStack=0;resizeParent=1;resizeParentMax=0;resizeLast=0;collapsible=1;marginBottom=0;whiteSpace=wrap;html=1;fontSize=18;" parent="1" vertex="1">
          <mxGeometry x="819" y="269" width="140" height="200" as="geometry" />
        </mxCell>
        <mxCell id="qpu88ibbBHQJC-O9vi6A-110" value="CodiceEsame" style="text;strokeColor=none;fillColor=none;align=left;verticalAlign=middle;spacingLeft=4;spacingRight=4;overflow=hidden;points=[[0,0.5],[1,0.5]];portConstraint=eastwest;rotatable=0;whiteSpace=wrap;html=1;fontSize=14;fontStyle=5" parent="qpu88ibbBHQJC-O9vi6A-109" vertex="1">
          <mxGeometry y="30" width="140" height="30" as="geometry" />
        </mxCell>
        <mxCell id="qpu88ibbBHQJC-O9vi6A-111" value="CodiceCorso" style="text;strokeColor=none;fillColor=none;align=left;verticalAlign=middle;spacingLeft=4;spacingRight=4;overflow=hidden;points=[[0,0.5],[1,0.5]];portConstraint=eastwest;rotatable=0;whiteSpace=wrap;html=1;fontSize=14;fontStyle=2" parent="qpu88ibbBHQJC-O9vi6A-109" vertex="1">
          <mxGeometry y="60" width="140" height="30" as="geometry" />
        </mxCell>
        <mxCell id="qpu88ibbBHQJC-O9vi6A-113" value="Tipo (esame/prova)" style="text;strokeColor=none;fillColor=none;align=left;verticalAlign=middle;spacingLeft=4;spacingRight=4;overflow=hidden;points=[[0,0.5],[1,0.5]];portConstraint=eastwest;rotatable=0;whiteSpace=wrap;html=1;fontSize=14;" parent="qpu88ibbBHQJC-O9vi6A-109" vertex="1">
          <mxGeometry y="90" width="140" height="30" as="geometry" />
        </mxCell>
        <mxCell id="qpu88ibbBHQJC-O9vi6A-112" value="Modalita (orale/scritto)" style="text;strokeColor=none;fillColor=none;align=left;verticalAlign=middle;spacingLeft=4;spacingRight=4;overflow=hidden;points=[[0,0.5],[1,0.5]];portConstraint=eastwest;rotatable=0;whiteSpace=wrap;html=1;fontSize=14;" parent="qpu88ibbBHQJC-O9vi6A-109" vertex="1">
          <mxGeometry y="120" width="140" height="50" as="geometry" />
        </mxCell>
        <mxCell id="qpu88ibbBHQJC-O9vi6A-126" value="Descrizione" style="text;strokeColor=none;fillColor=none;align=left;verticalAlign=middle;spacingLeft=4;spacingRight=4;overflow=hidden;points=[[0,0.5],[1,0.5]];portConstraint=eastwest;rotatable=0;whiteSpace=wrap;html=1;fontSize=14;" parent="qpu88ibbBHQJC-O9vi6A-109" vertex="1">
          <mxGeometry y="170" width="140" height="30" as="geometry" />
        </mxCell>
        <mxCell id="qpu88ibbBHQJC-O9vi6A-114" value="Appelli" style="swimlane;fontStyle=0;childLayout=stackLayout;horizontal=1;startSize=30;horizontalStack=0;resizeParent=1;resizeParentMax=0;resizeLast=0;collapsible=1;marginBottom=0;whiteSpace=wrap;html=1;fontSize=18;" parent="1" vertex="1">
          <mxGeometry x="609" y="189" width="140" height="120" as="geometry" />
        </mxCell>
        <mxCell id="qpu88ibbBHQJC-O9vi6A-115" value="CodiceAppello" style="text;strokeColor=none;fillColor=none;align=left;verticalAlign=middle;spacingLeft=4;spacingRight=4;overflow=hidden;points=[[0,0.5],[1,0.5]];portConstraint=eastwest;rotatable=0;whiteSpace=wrap;html=1;fontSize=14;fontStyle=5" parent="qpu88ibbBHQJC-O9vi6A-114" vertex="1">
          <mxGeometry y="30" width="140" height="30" as="geometry" />
        </mxCell>
        <mxCell id="qpu88ibbBHQJC-O9vi6A-116" value="CodiceEsame" style="text;strokeColor=none;fillColor=none;align=left;verticalAlign=middle;spacingLeft=4;spacingRight=4;overflow=hidden;points=[[0,0.5],[1,0.5]];portConstraint=eastwest;rotatable=0;whiteSpace=wrap;html=1;fontSize=14;fontStyle=2" parent="qpu88ibbBHQJC-O9vi6A-114" vertex="1">
          <mxGeometry y="60" width="140" height="30" as="geometry" />
        </mxCell>
        <mxCell id="qpu88ibbBHQJC-O9vi6A-117" value="Data" style="text;strokeColor=none;fillColor=none;align=left;verticalAlign=middle;spacingLeft=4;spacingRight=4;overflow=hidden;points=[[0,0.5],[1,0.5]];portConstraint=eastwest;rotatable=0;whiteSpace=wrap;html=1;fontSize=14;" parent="qpu88ibbBHQJC-O9vi6A-114" vertex="1">
          <mxGeometry y="90" width="140" height="30" as="geometry" />
        </mxCell>
        <mxCell id="qpu88ibbBHQJC-O9vi6A-118" value="Prenotazioni" style="swimlane;fontStyle=0;childLayout=stackLayout;horizontal=1;startSize=30;horizontalStack=0;resizeParent=1;resizeParentMax=0;resizeLast=0;collapsible=1;marginBottom=0;whiteSpace=wrap;html=1;fontSize=18;" parent="1" vertex="1">
          <mxGeometry x="339" y="329" width="140" height="120" as="geometry" />
        </mxCell>
        <mxCell id="qpu88ibbBHQJC-O9vi6A-119" value="CodiceAppello" style="text;strokeColor=none;fillColor=none;align=left;verticalAlign=middle;spacingLeft=4;spacingRight=4;overflow=hidden;points=[[0,0.5],[1,0.5]];portConstraint=eastwest;rotatable=0;whiteSpace=wrap;html=1;fontSize=14;fontStyle=5" parent="qpu88ibbBHQJC-O9vi6A-118" vertex="1">
          <mxGeometry y="30" width="140" height="30" as="geometry" />
        </mxCell>
        <mxCell id="qpu88ibbBHQJC-O9vi6A-120" value="Studente" style="text;strokeColor=none;fillColor=none;align=left;verticalAlign=middle;spacingLeft=4;spacingRight=4;overflow=hidden;points=[[0,0.5],[1,0.5]];portConstraint=eastwest;rotatable=0;whiteSpace=wrap;html=1;fontSize=14;fontStyle=5" parent="qpu88ibbBHQJC-O9vi6A-118" vertex="1">
          <mxGeometry y="60" width="140" height="30" as="geometry" />
        </mxCell>
        <mxCell id="qpu88ibbBHQJC-O9vi6A-121" value="NumeroProgressivo" style="text;strokeColor=none;fillColor=none;align=left;verticalAlign=middle;spacingLeft=4;spacingRight=4;overflow=hidden;points=[[0,0.5],[1,0.5]];portConstraint=eastwest;rotatable=0;whiteSpace=wrap;html=1;fontSize=14;" parent="qpu88ibbBHQJC-O9vi6A-118" vertex="1">
          <mxGeometry y="90" width="140" height="30" as="geometry" />
        </mxCell>
        <mxCell id="qpu88ibbBHQJC-O9vi6A-122" value="" style="endArrow=classic;html=1;rounded=0;exitX=1;exitY=0.5;exitDx=0;exitDy=0;entryX=1;entryY=0.5;entryDx=0;entryDy=0;" parent="1" source="qpu88ibbBHQJC-O9vi6A-111" target="qpu88ibbBHQJC-O9vi6A-106" edge="1">
          <mxGeometry width="50" height="50" relative="1" as="geometry">
            <mxPoint x="509" y="229" as="sourcePoint" />
            <mxPoint x="559" y="179" as="targetPoint" />
            <Array as="points">
              <mxPoint x="1069" y="344" />
              <mxPoint x="1069" y="159" />
            </Array>
          </mxGeometry>
        </mxCell>
        <mxCell id="qpu88ibbBHQJC-O9vi6A-123" value="" style="endArrow=classic;html=1;rounded=0;exitX=1;exitY=0.5;exitDx=0;exitDy=0;entryX=0;entryY=0.5;entryDx=0;entryDy=0;" parent="1" source="qpu88ibbBHQJC-O9vi6A-116" target="qpu88ibbBHQJC-O9vi6A-110" edge="1">
          <mxGeometry width="50" height="50" relative="1" as="geometry">
            <mxPoint x="619" y="269" as="sourcePoint" />
            <mxPoint x="669" y="219" as="targetPoint" />
            <Array as="points">
              <mxPoint x="789" y="264" />
              <mxPoint x="789" y="314" />
            </Array>
          </mxGeometry>
        </mxCell>
        <mxCell id="qpu88ibbBHQJC-O9vi6A-124" value="" style="endArrow=classic;html=1;rounded=0;exitX=1;exitY=0.5;exitDx=0;exitDy=0;entryX=0;entryY=0.5;entryDx=0;entryDy=0;" parent="1" source="qpu88ibbBHQJC-O9vi6A-119" target="qpu88ibbBHQJC-O9vi6A-115" edge="1">
          <mxGeometry width="50" height="50" relative="1" as="geometry">
            <mxPoint x="389" y="299" as="sourcePoint" />
            <mxPoint x="439" y="249" as="targetPoint" />
            <Array as="points">
              <mxPoint x="529" y="374" />
              <mxPoint x="529" y="234" />
            </Array>
          </mxGeometry>
        </mxCell>
        <mxCell id="qpu88ibbBHQJC-O9vi6A-125" value="" style="endArrow=classic;html=1;rounded=0;exitX=0;exitY=0.5;exitDx=0;exitDy=0;entryX=1;entryY=0.5;entryDx=0;entryDy=0;" parent="1" source="qpu88ibbBHQJC-O9vi6A-120" target="qpu88ibbBHQJC-O9vi6A-101" edge="1">
          <mxGeometry width="50" height="50" relative="1" as="geometry">
            <mxPoint x="389" y="299" as="sourcePoint" />
            <mxPoint x="439" y="249" as="targetPoint" />
            <Array as="points">
              <mxPoint x="299" y="404" />
              <mxPoint x="299" y="299" />
              <mxPoint x="369" y="299" />
              <mxPoint x="369" y="184" />
            </Array>
          </mxGeometry>
        </mxCell>
        <mxCell id="qpu88ibbBHQJC-O9vi6A-127" value="1" style="text;html=1;strokeColor=none;fillColor=none;align=center;verticalAlign=middle;whiteSpace=wrap;rounded=0;fontSize=18;" parent="1" vertex="1">
          <mxGeometry x="339" y="149" width="30" height="30" as="geometry" />
        </mxCell>
        <mxCell id="qpu88ibbBHQJC-O9vi6A-128" value="N" style="text;html=1;strokeColor=none;fillColor=none;align=center;verticalAlign=middle;whiteSpace=wrap;rounded=0;fontSize=18;" parent="1" vertex="1">
          <mxGeometry x="306" y="372" width="30" height="30" as="geometry" />
        </mxCell>
        <mxCell id="qpu88ibbBHQJC-O9vi6A-129" value="1" style="text;html=1;strokeColor=none;fillColor=none;align=center;verticalAlign=middle;whiteSpace=wrap;rounded=0;fontSize=18;" parent="1" vertex="1">
          <mxGeometry x="575" y="204" width="30" height="30" as="geometry" />
        </mxCell>
        <mxCell id="qpu88ibbBHQJC-O9vi6A-130" value="M" style="text;html=1;strokeColor=none;fillColor=none;align=center;verticalAlign=middle;whiteSpace=wrap;rounded=0;fontSize=18;" parent="1" vertex="1">
          <mxGeometry x="481" y="378" width="30" height="30" as="geometry" />
        </mxCell>
        <mxCell id="qpu88ibbBHQJC-O9vi6A-131" value="1" style="text;html=1;strokeColor=none;fillColor=none;align=center;verticalAlign=middle;whiteSpace=wrap;rounded=0;fontSize=18;" parent="1" vertex="1">
          <mxGeometry x="789" y="319" width="30" height="30" as="geometry" />
        </mxCell>
        <mxCell id="qpu88ibbBHQJC-O9vi6A-132" value="N" style="text;html=1;strokeColor=none;fillColor=none;align=center;verticalAlign=middle;whiteSpace=wrap;rounded=0;fontSize=18;" parent="1" vertex="1">
          <mxGeometry x="749" y="229" width="30" height="30" as="geometry" />
        </mxCell>
        <mxCell id="qpu88ibbBHQJC-O9vi6A-133" value="1" style="text;html=1;strokeColor=none;fillColor=none;align=center;verticalAlign=middle;whiteSpace=wrap;rounded=0;fontSize=18;" parent="1" vertex="1">
          <mxGeometry x="1029" y="129" width="30" height="30" as="geometry" />
        </mxCell>
        <mxCell id="qpu88ibbBHQJC-O9vi6A-134" value="N" style="text;html=1;strokeColor=none;fillColor=none;align=center;verticalAlign=middle;whiteSpace=wrap;rounded=0;fontSize=18;" parent="1" vertex="1">
          <mxGeometry x="959" y="349" width="30" height="30" as="geometry" />
        </mxCell>
        <mxCell id="qpu88ibbBHQJC-O9vi6A-136" value="Varchar(30)" style="text;html=1;strokeColor=none;fillColor=none;align=center;verticalAlign=middle;whiteSpace=wrap;rounded=0;fontSize=14;" parent="1" vertex="1">
          <mxGeometry x="99" y="199" width="90" height="30" as="geometry" />
        </mxCell>
        <mxCell id="qpu88ibbBHQJC-O9vi6A-137" value="Varchar(50)" style="text;html=1;strokeColor=none;fillColor=none;align=center;verticalAlign=middle;whiteSpace=wrap;rounded=0;fontSize=14;" parent="1" vertex="1">
          <mxGeometry x="99" y="229" width="90" height="30" as="geometry" />
        </mxCell>
        <mxCell id="qpu88ibbBHQJC-O9vi6A-138" value="smallint" style="text;html=1;strokeColor=none;fillColor=none;align=center;verticalAlign=middle;whiteSpace=wrap;rounded=0;fontSize=14;" parent="1" vertex="1">
          <mxGeometry x="279" y="419" width="60" height="30" as="geometry" />
        </mxCell>
        <mxCell id="qpu88ibbBHQJC-O9vi6A-139" value="Datetime" style="text;html=1;strokeColor=none;fillColor=none;align=center;verticalAlign=middle;whiteSpace=wrap;rounded=0;fontSize=14;" parent="1" vertex="1">
          <mxGeometry x="547" y="279" width="60" height="30" as="geometry" />
        </mxCell>
        <mxCell id="qpu88ibbBHQJC-O9vi6A-140" value="char(5) Const" style="text;html=1;strokeColor=none;fillColor=none;align=center;verticalAlign=middle;whiteSpace=wrap;rounded=0;fontSize=14;" parent="1" vertex="1">
          <mxGeometry x="749" y="359" width="70" height="30" as="geometry" />
        </mxCell>
        <mxCell id="qpu88ibbBHQJC-O9vi6A-141" value="varchar(7) Const" style="text;html=1;strokeColor=none;fillColor=none;align=center;verticalAlign=middle;whiteSpace=wrap;rounded=0;fontSize=14;" parent="1" vertex="1">
          <mxGeometry x="739" y="399" width="80" height="30" as="geometry" />
        </mxCell>
        <mxCell id="qpu88ibbBHQJC-O9vi6A-142" value="varchar(500)" style="text;html=1;strokeColor=none;fillColor=none;align=center;verticalAlign=middle;whiteSpace=wrap;rounded=0;fontSize=14;" parent="1" vertex="1">
          <mxGeometry x="719" y="439" width="100" height="30" as="geometry" />
        </mxCell>
        <mxCell id="qpu88ibbBHQJC-O9vi6A-143" value="varchar(50)" style="text;html=1;strokeColor=none;fillColor=none;align=center;verticalAlign=middle;whiteSpace=wrap;rounded=0;fontSize=14;" parent="1" vertex="1">
          <mxGeometry x="799" y="174" width="80" height="30" as="geometry" />
        </mxCell>
        <mxCell id="qpu88ibbBHQJC-O9vi6A-144" value="tinyint" style="text;html=1;strokeColor=none;fillColor=none;align=center;verticalAlign=middle;whiteSpace=wrap;rounded=0;fontSize=14;" parent="1" vertex="1">
          <mxGeometry x="809" y="204" width="70" height="30" as="geometry" />
        </mxCell>
        <mxCell id="0l1mAVOR_yaePjFmdClw-1" value="SEZIONE OPERAZIONI SU DATABASE" style="text;html=1;align=center;verticalAlign=middle;resizable=0;points=[];autosize=1;strokeColor=none;fillColor=none;fontSize=20;" parent="1" vertex="1">
          <mxGeometry x="1898" y="149" width="380" height="40" as="geometry" />
        </mxCell>
        <mxCell id="0l1mAVOR_yaePjFmdClw-7" value="&lt;font style=&quot;&quot;&gt;&lt;font style=&quot;font-size: 14px;&quot;&gt;6. Query per ottenere gli appelli disponibili di un corso ai quali lo studente non è prenotato&lt;br&gt;&lt;/font&gt;&lt;br&gt;&lt;div style=&quot;text-align: left;&quot;&gt;&lt;font style=&quot;font-size: 14px;&quot;&gt;SELECT appelli.CodiceAppello AS Codice, appelli.Data, corsi.Nome&lt;/font&gt;&lt;/div&gt;&lt;div style=&quot;text-align: left;&quot;&gt;&lt;font size=&quot;3&quot;&gt;FROM appelli&lt;/font&gt;&lt;/div&gt;&lt;div style=&quot;text-align: left;&quot;&gt;&lt;font size=&quot;3&quot;&gt;&lt;span style=&quot;&quot;&gt;&lt;span style=&quot;white-space: pre;&quot;&gt;&amp;nbsp;&amp;nbsp;&amp;nbsp;&amp;nbsp;&lt;/span&gt;&lt;/span&gt;JOIN esami ON appelli.CodiceEsame=esami.CodiceEsame&lt;/font&gt;&lt;/div&gt;&lt;div style=&quot;text-align: left;&quot;&gt;&lt;font size=&quot;3&quot;&gt;&amp;nbsp; &amp;nbsp; JOIN corsi ON esami.CodiceCorso=corsi.CodiceCorso&lt;/font&gt;&lt;/div&gt;&lt;div style=&quot;text-align: left;&quot;&gt;&lt;font size=&quot;3&quot;&gt;WHERE NOT EXISTS (SELECT prenotazioni.CodiceAppello&lt;/font&gt;&lt;/div&gt;&lt;div style=&quot;text-align: left;&quot;&gt;&lt;font size=&quot;3&quot;&gt;&amp;nbsp;&lt;span style=&quot;&quot;&gt;&lt;span style=&quot;white-space: pre;&quot;&gt;&amp;nbsp;&amp;nbsp;&amp;nbsp;&amp;nbsp;&lt;/span&gt;&lt;span style=&quot;white-space: pre;&quot;&gt;&amp;nbsp;&amp;nbsp;&amp;nbsp;&amp;nbsp;&lt;/span&gt;&lt;span style=&quot;white-space: pre;&quot;&gt;&amp;nbsp;&amp;nbsp;&amp;nbsp;&amp;nbsp;&lt;/span&gt;&lt;span style=&quot;white-space: pre;&quot;&gt;&amp;nbsp;&amp;nbsp;&amp;nbsp;&amp;nbsp;&lt;/span&gt;&lt;span style=&quot;white-space: pre;&quot;&gt;&amp;nbsp;&amp;nbsp;&amp;nbsp;&amp;nbsp;&lt;/span&gt;&lt;/span&gt;FROM prenotazioni&lt;/font&gt;&lt;/div&gt;&lt;div style=&quot;text-align: left;&quot;&gt;&lt;font size=&quot;3&quot;&gt;&lt;span style=&quot;&quot;&gt;&lt;span style=&quot;white-space: pre;&quot;&gt;&amp;nbsp;&amp;nbsp;&amp;nbsp;&amp;nbsp;&lt;/span&gt;&lt;span style=&quot;white-space: pre;&quot;&gt;&amp;nbsp;&amp;nbsp;&amp;nbsp;&amp;nbsp;&lt;/span&gt;&lt;span style=&quot;white-space: pre;&quot;&gt;&amp;nbsp;&amp;nbsp;&amp;nbsp;&amp;nbsp;&lt;/span&gt;&lt;span style=&quot;white-space: pre;&quot;&gt;&amp;nbsp;&amp;nbsp;&amp;nbsp;&amp;nbsp;&lt;/span&gt;&lt;span style=&quot;white-space: pre;&quot;&gt;&amp;nbsp;&amp;nbsp;&amp;nbsp;&amp;nbsp;&lt;/span&gt;&lt;/span&gt;WHERE prenotazioni.Studente = &amp;lt;id studente&amp;gt;&lt;/font&gt;&lt;/div&gt;&lt;div style=&quot;text-align: left;&quot;&gt;&lt;font size=&quot;3&quot;&gt;&amp;nbsp; &amp;nbsp; &amp;nbsp; &amp;nbsp; &amp;nbsp; &amp;nbsp; &amp;nbsp; &amp;nbsp; &amp;nbsp;&lt;span style=&quot;&quot;&gt;&lt;span style=&quot;white-space: pre;&quot;&gt;&amp;nbsp;&amp;nbsp;&amp;nbsp;&amp;nbsp;&lt;/span&gt;&lt;span style=&quot;white-space: pre;&quot;&gt;&amp;nbsp;&amp;nbsp;&amp;nbsp;&amp;nbsp;&lt;/span&gt;&lt;span style=&quot;white-space: pre;&quot;&gt;&amp;nbsp;&amp;nbsp;&amp;nbsp;&amp;nbsp;&lt;/span&gt;&lt;/span&gt;AND prenotazioni.CodiceAppello=appelli.CodiceAppello)&lt;/font&gt;&lt;/div&gt;&lt;div style=&quot;text-align: left;&quot;&gt;&lt;font size=&quot;3&quot;&gt;AND corsi.CodiceCorso = &amp;lt;id corso&amp;gt;&lt;/font&gt;&lt;/div&gt;&lt;/font&gt;" style="text;html=1;align=center;verticalAlign=middle;resizable=0;points=[];autosize=1;strokeColor=none;fillColor=none;" parent="1" vertex="1">
          <mxGeometry x="2622" y="442" width="573" height="213" as="geometry" />
        </mxCell>
        <mxCell id="0l1mAVOR_yaePjFmdClw-8" value="&lt;font style=&quot;&quot;&gt;&lt;font style=&quot;font-size: 14px;&quot;&gt;7. Query per ottenere gli appelli ai quali lo studente è prenotato&lt;br&gt;&lt;/font&gt;&lt;font style=&quot;font-size: 14px;&quot;&gt;&lt;br&gt;&lt;/font&gt;&lt;div style=&quot;text-align: left;&quot;&gt;&lt;font size=&quot;3&quot;&gt;SELECT prenotazioni.CodiceAppello AS Codice,appelli.Data,corsi.Nome,esami.Tipo,esami.Modalita,esami.Descrizione, Prenotazioni.NumeroProgressivo AS NPrenotazione&lt;/font&gt;&lt;/div&gt;&lt;div style=&quot;text-align: left;&quot;&gt;&lt;span style=&quot;background-color: initial;&quot;&gt;&lt;font size=&quot;3&quot;&gt;FROM prenotazioni&amp;nbsp;&lt;/font&gt;&lt;/span&gt;&lt;/div&gt;&lt;div style=&quot;text-align: left;&quot;&gt;&lt;font size=&quot;3&quot;&gt;&lt;span style=&quot;&quot;&gt;&lt;span style=&quot;white-space: pre;&quot;&gt;&amp;nbsp;&amp;nbsp;&amp;nbsp;&amp;nbsp;&lt;/span&gt;&lt;/span&gt;JOIN studenti ON prenotazioni.Studente=studenti.Matricola&amp;nbsp;&lt;/font&gt;&lt;/div&gt;&lt;div style=&quot;text-align: left;&quot;&gt;&lt;font size=&quot;3&quot;&gt;&amp;nbsp; &amp;nbsp; JOIN appelli ON prenotazioni.CodiceAppello=appelli.CodiceAppello&amp;nbsp;&lt;/font&gt;&lt;/div&gt;&lt;div style=&quot;text-align: left;&quot;&gt;&lt;font size=&quot;3&quot;&gt;&amp;nbsp; &amp;nbsp; JOIN esami ON appelli.CodiceEsame=esami.CodiceEsame&lt;/font&gt;&lt;/div&gt;&lt;div style=&quot;text-align: left;&quot;&gt;&lt;font size=&quot;3&quot;&gt;&amp;nbsp; &amp;nbsp; JOIN corsi ON corsi.CodiceCorso=esami.CodiceCorso&lt;/font&gt;&lt;/div&gt;&lt;div style=&quot;text-align: left;&quot;&gt;&lt;font size=&quot;3&quot;&gt;WHERE prenotazioni.Studente=&amp;lt;id studente&amp;gt;&lt;/font&gt;&lt;/div&gt;&lt;/font&gt;" style="text;html=1;align=center;verticalAlign=middle;resizable=0;points=[];autosize=1;strokeColor=none;fillColor=none;" parent="1" vertex="1">
          <mxGeometry x="1176" y="699" width="1241" height="180" as="geometry" />
        </mxCell>
        <mxCell id="0l1mAVOR_yaePjFmdClw-9" value="&lt;font style=&quot;font-size: 14px;&quot;&gt;1. Inserimento nuovo appello da parte della segreteria&lt;br&gt;&lt;br&gt;INSERT INTO appelli (CodiceAppello, CodiceEsame, Data) VALUES (&amp;lt;id&amp;gt;, &amp;lt;id&amp;gt;, &amp;lt;datetime&amp;gt;)&lt;/font&gt;" style="text;html=1;align=center;verticalAlign=middle;resizable=0;points=[];autosize=1;strokeColor=none;fillColor=none;" parent="1" vertex="1">
          <mxGeometry x="2256" y="223" width="597" height="62" as="geometry" />
        </mxCell>
        <mxCell id="0l1mAVOR_yaePjFmdClw-10" value="&lt;font style=&quot;font-size: 14px;&quot;&gt;3. Inserimento nuova prenotazione dello studente da parte della segreteria&lt;br&gt;&lt;br&gt;INSERT INTO prenotazioni (CodiceAppello, Studente, NumeroProgressivo) VALUES (&amp;lt;id&amp;gt;,&amp;lt;id&amp;gt;,&amp;lt;smallint&amp;gt;)&lt;/font&gt;" style="text;html=1;align=center;verticalAlign=middle;resizable=0;points=[];autosize=1;strokeColor=none;fillColor=none;" parent="1" vertex="1">
          <mxGeometry x="2253" y="342" width="682" height="62" as="geometry" />
        </mxCell>
        <mxCell id="9eVTK3MTQIEa-Sh05Ag--1" value="Server" style="shape=cylinder3;whiteSpace=wrap;html=1;boundedLbl=1;backgroundOutline=1;size=15;fontSize=14;" parent="1" vertex="1">
          <mxGeometry x="1678" y="-264" width="60" height="80" as="geometry" />
        </mxCell>
        <mxCell id="9eVTK3MTQIEa-Sh05Ag--2" value="Segreteria" style="ellipse;rounded=0;whiteSpace=wrap;html=1;fontSize=14;perimeter=rectanglePerimeter;" parent="1" vertex="1">
          <mxGeometry x="1538" y="-434" width="120" height="60" as="geometry" />
        </mxCell>
        <mxCell id="9eVTK3MTQIEa-Sh05Ag--3" value="Studente" style="rounded=0;whiteSpace=wrap;html=1;fontSize=14;" parent="1" vertex="1">
          <mxGeometry x="1778" y="-434" width="120" height="60" as="geometry" />
        </mxCell>
        <mxCell id="9eVTK3MTQIEa-Sh05Ag--4" value="" style="endArrow=classic;html=1;rounded=0;exitX=0;exitY=0.25;exitDx=0;exitDy=0;entryX=1;entryY=0.25;entryDx=0;entryDy=0;fillColor=#dae8fc;strokeColor=#6c8ebf;fontSize=14;" parent="1" source="9eVTK3MTQIEa-Sh05Ag--3" target="9eVTK3MTQIEa-Sh05Ag--2" edge="1">
          <mxGeometry width="50" height="50" relative="1" as="geometry">
            <mxPoint x="1688" y="-224" as="sourcePoint" />
            <mxPoint x="1718" y="-494" as="targetPoint" />
          </mxGeometry>
        </mxCell>
        <mxCell id="9eVTK3MTQIEa-Sh05Ag--5" value="Chiede appelli prenotati" style="text;html=1;align=center;verticalAlign=middle;whiteSpace=wrap;rounded=0;fillColor=#dae8fc;strokeColor=#6c8ebf;fontSize=14;" parent="1" vertex="1">
          <mxGeometry x="1681" y="-474" width="79" height="55" as="geometry" />
        </mxCell>
        <mxCell id="9eVTK3MTQIEa-Sh05Ag--6" value="" style="endArrow=classic;html=1;rounded=0;exitX=0.25;exitY=1;exitDx=0;exitDy=0;entryX=0;entryY=1;entryDx=0;entryDy=-15;entryPerimeter=0;fillColor=#dae8fc;strokeColor=#6c8ebf;fontSize=14;" parent="1" source="9eVTK3MTQIEa-Sh05Ag--2" target="9eVTK3MTQIEa-Sh05Ag--1" edge="1">
          <mxGeometry width="50" height="50" relative="1" as="geometry">
            <mxPoint x="1688" y="-224" as="sourcePoint" />
            <mxPoint x="1738" y="-274" as="targetPoint" />
            <Array as="points">
              <mxPoint x="1568" y="-199" />
            </Array>
          </mxGeometry>
        </mxCell>
        <mxCell id="9eVTK3MTQIEa-Sh05Ag--7" value="" style="endArrow=classic;html=1;rounded=0;exitX=0;exitY=0.5;exitDx=0;exitDy=0;exitPerimeter=0;entryX=0.5;entryY=1;entryDx=0;entryDy=0;fillColor=#d5e8d4;strokeColor=#82b366;fontSize=14;" parent="1" source="9eVTK3MTQIEa-Sh05Ag--1" target="9eVTK3MTQIEa-Sh05Ag--2" edge="1">
          <mxGeometry width="50" height="50" relative="1" as="geometry">
            <mxPoint x="1678" y="-294" as="sourcePoint" />
            <mxPoint x="1598" y="-354" as="targetPoint" />
            <Array as="points">
              <mxPoint x="1598" y="-224" />
            </Array>
          </mxGeometry>
        </mxCell>
        <mxCell id="9eVTK3MTQIEa-Sh05Ag--8" value="Richiede appelli al server" style="text;html=1;align=center;verticalAlign=middle;whiteSpace=wrap;rounded=0;fillColor=#dae8fc;strokeColor=#6c8ebf;fontSize=14;" parent="1" vertex="1">
          <mxGeometry x="1498" y="-314" width="70" height="60" as="geometry" />
        </mxCell>
        <mxCell id="9eVTK3MTQIEa-Sh05Ag--9" value="Invio appelli prenotati" style="text;html=1;align=center;verticalAlign=middle;whiteSpace=wrap;rounded=0;fillColor=#d5e8d4;strokeColor=#82b366;fontSize=14;" parent="1" vertex="1">
          <mxGeometry x="1598" y="-314" width="69" height="60" as="geometry" />
        </mxCell>
        <mxCell id="9eVTK3MTQIEa-Sh05Ag--10" value="Invio appelli prenotati" style="text;html=1;align=center;verticalAlign=middle;whiteSpace=wrap;rounded=0;fillColor=#d5e8d4;strokeColor=#82b366;fontSize=14;" parent="1" vertex="1">
          <mxGeometry x="1668" y="-389" width="82.5" height="45" as="geometry" />
        </mxCell>
        <mxCell id="9eVTK3MTQIEa-Sh05Ag--11" value="" style="endArrow=classic;html=1;rounded=0;exitX=1;exitY=0.75;exitDx=0;exitDy=0;entryX=0;entryY=0.75;entryDx=0;entryDy=0;fillColor=#d5e8d4;strokeColor=#82b366;fontSize=14;" parent="1" source="9eVTK3MTQIEa-Sh05Ag--2" target="9eVTK3MTQIEa-Sh05Ag--3" edge="1">
          <mxGeometry width="50" height="50" relative="1" as="geometry">
            <mxPoint x="1678" y="-364" as="sourcePoint" />
            <mxPoint x="1728" y="-354" as="targetPoint" />
          </mxGeometry>
        </mxCell>
        <mxCell id="9eVTK3MTQIEa-Sh05Ag--12" value="Visione appelli prenotati" style="text;html=1;strokeColor=none;fillColor=none;align=center;verticalAlign=middle;whiteSpace=wrap;rounded=0;fontSize=20;" parent="1" vertex="1">
          <mxGeometry x="1640.5" y="-544" width="160" height="50" as="geometry" />
        </mxCell>
        <mxCell id="9eVTK3MTQIEa-Sh05Ag--15" value="8. Query per ottenere il numero di iscritti ad un apello (per generare numero progressivo)&lt;br&gt;&lt;br&gt;&lt;div style=&quot;text-align: left;&quot;&gt;SELECT count(*) AS MaxNumero FROM prenotazioni&lt;/div&gt;&lt;div style=&quot;text-align: left;&quot;&gt;WHERE CodiceAppello = &amp;lt;id appello&amp;gt;&lt;/div&gt;" style="text;html=1;align=center;verticalAlign=middle;resizable=0;points=[];autosize=1;strokeColor=none;fillColor=none;fontSize=14;" parent="1" vertex="1">
          <mxGeometry x="2525" y="797" width="568" height="79" as="geometry" />
        </mxCell>
        <mxCell id="d-nBW25KGSs0e9RZ64rd-1" value="Server" style="shape=cylinder3;whiteSpace=wrap;html=1;boundedLbl=1;backgroundOutline=1;size=15;fontSize=14;" parent="1" vertex="1">
          <mxGeometry x="1047" y="-704" width="60" height="80" as="geometry" />
        </mxCell>
        <mxCell id="d-nBW25KGSs0e9RZ64rd-2" value="Segreteria" style="ellipse;rounded=0;whiteSpace=wrap;html=1;fontSize=14;perimeter=rectanglePerimeter;" parent="1" vertex="1">
          <mxGeometry x="907" y="-874" width="120" height="60" as="geometry" />
        </mxCell>
        <mxCell id="d-nBW25KGSs0e9RZ64rd-3" value="Studente" style="rounded=0;whiteSpace=wrap;html=1;fontSize=14;" parent="1" vertex="1">
          <mxGeometry x="1147" y="-874" width="120" height="60" as="geometry" />
        </mxCell>
        <mxCell id="d-nBW25KGSs0e9RZ64rd-4" value="" style="endArrow=classic;html=1;rounded=0;exitX=0;exitY=0.25;exitDx=0;exitDy=0;entryX=1;entryY=0.25;entryDx=0;entryDy=0;fillColor=#dae8fc;strokeColor=#6c8ebf;fontSize=14;" parent="1" source="d-nBW25KGSs0e9RZ64rd-3" target="d-nBW25KGSs0e9RZ64rd-2" edge="1">
          <mxGeometry width="50" height="50" relative="1" as="geometry">
            <mxPoint x="1057" y="-664" as="sourcePoint" />
            <mxPoint x="1087" y="-934" as="targetPoint" />
          </mxGeometry>
        </mxCell>
        <mxCell id="d-nBW25KGSs0e9RZ64rd-5" value="Invia matricola" style="text;html=1;align=center;verticalAlign=middle;whiteSpace=wrap;rounded=0;fillColor=#dae8fc;strokeColor=#6c8ebf;fontSize=14;" parent="1" vertex="1">
          <mxGeometry x="1047" y="-914" width="70" height="55" as="geometry" />
        </mxCell>
        <mxCell id="d-nBW25KGSs0e9RZ64rd-6" value="" style="endArrow=classic;html=1;rounded=0;exitX=0.25;exitY=1;exitDx=0;exitDy=0;entryX=0;entryY=1;entryDx=0;entryDy=-15;entryPerimeter=0;fillColor=#dae8fc;strokeColor=#6c8ebf;fontSize=14;" parent="1" source="d-nBW25KGSs0e9RZ64rd-2" target="d-nBW25KGSs0e9RZ64rd-1" edge="1">
          <mxGeometry width="50" height="50" relative="1" as="geometry">
            <mxPoint x="1057" y="-664" as="sourcePoint" />
            <mxPoint x="1107" y="-714" as="targetPoint" />
            <Array as="points">
              <mxPoint x="937" y="-639" />
            </Array>
          </mxGeometry>
        </mxCell>
        <mxCell id="d-nBW25KGSs0e9RZ64rd-7" value="" style="endArrow=classic;html=1;rounded=0;exitX=0;exitY=0.5;exitDx=0;exitDy=0;exitPerimeter=0;entryX=0.5;entryY=1;entryDx=0;entryDy=0;fillColor=#d5e8d4;strokeColor=#82b366;fontSize=14;" parent="1" source="d-nBW25KGSs0e9RZ64rd-1" target="d-nBW25KGSs0e9RZ64rd-2" edge="1">
          <mxGeometry width="50" height="50" relative="1" as="geometry">
            <mxPoint x="1047" y="-734" as="sourcePoint" />
            <mxPoint x="967" y="-794" as="targetPoint" />
            <Array as="points">
              <mxPoint x="967" y="-664" />
            </Array>
          </mxGeometry>
        </mxCell>
        <mxCell id="d-nBW25KGSs0e9RZ64rd-8" value="Inoltra matricola al server" style="text;html=1;align=center;verticalAlign=middle;whiteSpace=wrap;rounded=0;fillColor=#dae8fc;strokeColor=#6c8ebf;fontSize=14;" parent="1" vertex="1">
          <mxGeometry x="867" y="-754" width="70" height="60" as="geometry" />
        </mxCell>
        <mxCell id="d-nBW25KGSs0e9RZ64rd-9" value="Invio esito auth" style="text;html=1;align=center;verticalAlign=middle;whiteSpace=wrap;rounded=0;fillColor=#d5e8d4;strokeColor=#82b366;fontSize=14;" parent="1" vertex="1">
          <mxGeometry x="967" y="-754" width="50" height="60" as="geometry" />
        </mxCell>
        <mxCell id="d-nBW25KGSs0e9RZ64rd-10" value="Inoltra esito auth" style="text;html=1;align=center;verticalAlign=middle;whiteSpace=wrap;rounded=0;fillColor=#d5e8d4;strokeColor=#82b366;fontSize=14;" parent="1" vertex="1">
          <mxGeometry x="1037" y="-829" width="90" height="45" as="geometry" />
        </mxCell>
        <mxCell id="d-nBW25KGSs0e9RZ64rd-11" value="" style="endArrow=classic;html=1;rounded=0;exitX=1;exitY=0.75;exitDx=0;exitDy=0;entryX=0;entryY=0.75;entryDx=0;entryDy=0;fillColor=#d5e8d4;strokeColor=#82b366;fontSize=14;" parent="1" source="d-nBW25KGSs0e9RZ64rd-2" target="d-nBW25KGSs0e9RZ64rd-3" edge="1">
          <mxGeometry width="50" height="50" relative="1" as="geometry">
            <mxPoint x="1047" y="-804" as="sourcePoint" />
            <mxPoint x="1097" y="-794" as="targetPoint" />
          </mxGeometry>
        </mxCell>
        <mxCell id="d-nBW25KGSs0e9RZ64rd-12" value="Autenticazione Studente" style="text;html=1;strokeColor=none;fillColor=none;align=center;verticalAlign=middle;whiteSpace=wrap;rounded=0;fontSize=20;" parent="1" vertex="1">
          <mxGeometry x="1047" y="-984" width="160" height="50" as="geometry" />
        </mxCell>
        <mxCell id="d-nBW25KGSs0e9RZ64rd-13" value="&lt;font style=&quot;font-size: 14px;&quot;&gt;0. Ottenimento matricola&lt;br&gt;&lt;br&gt;SELECT * FROM studenti WHERE Matricola = &amp;lt;matricola&amp;gt;&lt;/font&gt;" style="text;html=1;align=center;verticalAlign=middle;resizable=0;points=[];autosize=1;strokeColor=none;fillColor=none;" parent="1" vertex="1">
          <mxGeometry x="1507" y="220" width="385" height="62" as="geometry" />
        </mxCell>
        <mxCell id="FUbfNyty7Cl9NNgPWRT3-1" value="&lt;font style=&quot;&quot;&gt;2. Inserimento nuovo esame da parte della segreteria&lt;br&gt;&lt;br&gt;&lt;span style=&quot;font-size: 14px;&quot;&gt;INSERT INTO esami (CodiceEsame, CodiceCorso, Tipo, Modalita, Descrizione) VALUES (&amp;lt;id&amp;gt;, &amp;lt;id&amp;gt;, &amp;lt;tipo&amp;gt;, &amp;lt;modalita&amp;gt;, &amp;lt;descrizione&amp;gt;)&lt;/span&gt;&lt;br&gt;&lt;/font&gt;" style="text;html=1;align=center;verticalAlign=middle;resizable=0;points=[];autosize=1;strokeColor=none;fillColor=none;" vertex="1" parent="1">
          <mxGeometry x="1223" y="346" width="864" height="58" as="geometry" />
        </mxCell>
        <mxCell id="FUbfNyty7Cl9NNgPWRT3-2" value="&lt;font style=&quot;&quot;&gt;&lt;font style=&quot;font-size: 14px;&quot;&gt;4. Query per ottenere i corsi&lt;br&gt;&lt;/font&gt;&lt;br&gt;&lt;div style=&quot;text-align: left;&quot;&gt;&lt;span style=&quot;font-size: 14px;&quot;&gt;SELECT CodiceCorso AS Codice, Nome, CFU From corsi&lt;/span&gt;&lt;/div&gt;&lt;/font&gt;" style="text;html=1;align=center;verticalAlign=middle;resizable=0;points=[];autosize=1;strokeColor=none;fillColor=none;" vertex="1" parent="1">
          <mxGeometry x="1371" y="476" width="378" height="60" as="geometry" />
        </mxCell>
        <mxCell id="FUbfNyty7Cl9NNgPWRT3-3" value="&lt;font style=&quot;&quot;&gt;&lt;font style=&quot;font-size: 14px;&quot;&gt;5. Query per ottenere gli esami di un corso&lt;br&gt;&lt;/font&gt;&lt;br&gt;&lt;div style=&quot;text-align: left;&quot;&gt;&lt;font style=&quot;font-size: 14px;&quot;&gt;SELECT CodiceEsame AS Codice, Tipo, Modalita, Descrizione FROM esami WHERE CodiceCorso = &amp;lt;id corso&amp;gt;&lt;/font&gt;&lt;br&gt;&lt;/div&gt;&lt;/font&gt;" style="text;html=1;align=center;verticalAlign=middle;resizable=0;points=[];autosize=1;strokeColor=none;fillColor=none;" vertex="1" parent="1">
          <mxGeometry x="1815" y="476" width="716" height="60" as="geometry" />
        </mxCell>
      </root>
    </mxGraphModel>
  </diagram>
</mxfile>
